<?xml version="1.0" encoding="utf-8"?>
<!-- Generator: Adobe Illustrator 28.0.0, SVG Export Plug-In . SVG Version: 6.00 Build 0)  -->
<svg version="1.1" xmlns="http://www.w3.org/2000/svg" xmlns:xlink="http://www.w3.org/1999/xlink" x="0px" y="0px"
	 viewBox="0 0 521.24 277.67" style="enable-background:new 0 0 521.24 277.67;" xml:space="preserve">
<style type="text/css">
	.st0{fill:#467085;}
	.st1{fill:#D884B6;}
	.st2{fill:#28B6E3;}
	.st3{fill:#FFFFFF;}
	.st4{fill:#F4DC6C;}
	.st5{fill:none;stroke:#F4DC6C;stroke-miterlimit:10;}
	.st6{display:none;}
	.st7{display:inline;}
	.st8{fill:#9D9D9C;}
	.st9{display:inline;fill:#28B6E3;}
	.st10{display:inline;fill:#F4DC6C;}
	.st11{display:inline;fill:#D884B6;}
	.st12{fill:#254D66;}
	.st13{fill:none;stroke:#000000;stroke-width:19;stroke-linecap:round;stroke-linejoin:round;stroke-miterlimit:10;}
	.st14{display:inline;fill:#FFFFFF;}
	.st15{display:inline;fill:none;stroke:#467085;stroke-width:11;stroke-linecap:round;stroke-linejoin:round;stroke-miterlimit:10;}
	.st16{display:inline;fill:#467085;}
	.st17{display:inline;fill:url(#SVGID_1_);}
	.st18{fill:url(#SVGID_00000030479795929399458280000016481842247896708509_);}
	.st19{display:inline;fill:url(#SVGID_00000092429303299390232580000016999253625374770826_);}
	.st20{display:inline;fill:url(#SVGID_00000140734151694511122440000015030938997763211962_);}
	.st21{fill:url(#SVGID_00000137122309578997899360000016269178877934536848_);}
	.st22{display:inline;fill:url(#SVGID_00000023266198804052908160000014421827616623913883_);}
	.st23{display:inline;fill:url(#SVGID_00000177462173647747242960000006817848045380062354_);}
	.st24{fill:url(#SVGID_00000057853256528044110910000000693897093244930710_);}
	.st25{display:inline;fill:url(#SVGID_00000126318877089853837660000011672660218071691425_);}
	.st26{fill:url(#SVGID_00000023281035394264997410000001591278308442688129_);}
	.st27{fill:url(#SVGID_00000011712948151945669180000001508413969465899179_);}
	.st28{fill:url(#SVGID_00000130606318926119468080000003682762861589834420_);}
	.st29{fill:#305A6A;}
	.st30{fill:url(#SVGID_00000152224353317485871620000009243239965946065036_);}
	.st31{fill:url(#SVGID_00000009577883778037301970000013745728411237044394_);}
	.st32{fill:url(#SVGID_00000041294984038551591020000001790516128602925453_);}
	.st33{fill:url(#SVGID_00000121273703965895233160000003365630510639828369_);}
	.st34{fill:url(#SVGID_00000170967899624855311490000007372647100709576123_);}
	.st35{fill:url(#SVGID_00000163751625632899083020000009151882030812816789_);}
	.st36{display:inline;fill:#305A6A;}
	.st37{display:inline;fill:none;stroke:#305A6A;stroke-width:0.5;stroke-miterlimit:10;}
</style>
<g id="Layer_1">
	<g>
		<polygon class="st1" points="382.33,81.64 404.54,111.11 426.81,81.64 		"/>
		<path class="st1" d="M458.91,50.27l-18.63,24.66h45.79l13.22-17.55c2.74-3.63,0.15-8.82-4.4-8.82h-32.05
			C461.35,48.56,459.94,49.2,458.91,50.27z"/>
		<polygon class="st1" points="436.57,81.64 458.82,111.09 481.02,81.64 		"/>
		<path class="st2" d="M431.69,86.31l-12.89,17.06l-10.05,13.33l-44.7,59.31c-2.74,3.63-0.15,8.82,4.4,8.82h32.05
			c1.73,0,3.36-0.81,4.4-2.19l26.78-35.53l26.78,35.53c1.04,1.38,2.67,2.19,4.4,2.19h32.05c4.55,0,7.14-5.19,4.4-8.82L431.69,86.31z
			"/>
		<path class="st1" d="M377.27,74.93h45.82l-18.51-24.51c-1.04-1.16-2.51-1.86-4.09-1.86h-32.05c-4.55,0-7.14,5.19-4.4,8.82
			L377.27,74.93z"/>
		<path class="st0" d="M25.1,156.92c2.32-5.66,8.76-8.37,14.43-6.06c6.59,2.68,16.77,5.72,29.04,5.72c10.25,0,20.5-3.25,20.5-12.25
			c0-7.25-7.25-10.75-19-14.25l-15.25-4.75c-26.99-7.75-33.99-21.25-33.99-37.24c0-27.49,22.24-43.24,57.24-43.24
			c37.74,0,47.99,9.25,48.49,16.5c0.5,3.64-1.14,9.05-3.25,13.76c-2.41,5.38-8.69,7.77-14.17,5.61c-6.19-2.44-15.42-5.12-26.07-5.12
			c-7.75,0-18.75,1.5-18.75,11.25c0,6,4.25,9.25,14.25,12l16.75,4.75c27.99,7.5,38.24,20.25,38.24,38.99
			c0,28-24.25,44.74-62.24,44.74c-37.99,0-48.24-10-48.49-19.5C22.73,164.05,23.74,160.24,25.1,156.92z"/>
		<path class="st0" d="M154.8,79.09h-11c-5,0-7.25-1.5-7-6.25c0.25-4.75-0.75-10.75-0.5-15.5c0.25-2.5,1.25-5.5,7-7
			c20-2.75,22.75-15.25,23.75-22.5c1.25-5,3-7.5,8.75-7.5c7.75,0,23-3,22.5,8.75c-0.25,5.5-0.25,13.25-0.25,18.25
			c6,0.25,19,0.25,27.49,0c6-0.25,7.75,2.5,7.75,6c0,5-0.25,12.5-0.25,19.5c0,3.75-1,6-6,6c-9-0.25-26.49,0-29.49,0
			c-0.5,20.25-1,48.49-0.75,63.74c0.25,10.5,3.5,13,10.75,13c5,0,10-1.25,14.25-2c4.5-0.75,8,2,8.5,6l1,10.25
			c0.5,5-0.5,8.25-4.5,10.75c-8,4.75-23.75,6.75-34.74,6.75c-28.24,0-38.24-14.75-38.24-40.49
			C153.8,132.83,155.05,88.09,154.8,79.09z"/>
		<path class="st0" d="M285.78,103.34c12,0.25,24.25,3.5,29.24,5.25v-9.5c0-12.5-8.75-19-24.24-19c-9.55,0-18.77,1.93-25.45,3.8
			c-6.96,1.95-14.25-2.02-16.23-8.97c-1.79-6.3-2-13.77,3.69-19.33c6.75-6.25,21.75-10.75,43.49-10.75
			c37.24,0,58.99,20.75,59.99,50.74c0.75,19.75-1,53.99-0.5,67.74c0.25,11.75,7.5,24-18.75,24c-13.25,0-20.75-7-18.25-26.25h-1.5
			c0,0-8.5,26.25-39.24,26.25c-25.75,0-41.49-17.75-42.49-40.74C234.29,118.33,256.28,102.59,285.78,103.34z M290.28,157.33
			c14,0,22.75-11.5,24.74-20v-11c-2.5-1-10-2.5-18-2.5c-13.5,0-24.25,6.5-24.25,17.75C273.03,151.33,280.03,157.33,290.28,157.33z"
			/>
	</g>
	<g>
		<path class="st1" d="M33.55,203.37c-5.58,0-8.37,2.1-8.37,6.31c0,2.34,0.64,3.95,1.92,4.83c1.28,0.87,3.89,1.75,7.81,2.62
			c3.92,0.87,6.7,2.01,8.34,3.4c1.64,1.4,2.45,3.69,2.45,6.89c0,7.92-4.11,11.89-12.33,11.89c-2.72,0-6.12-0.32-10.21-0.95
			l-2.01-0.28l0.45-3.57c5.06,0.67,8.91,1,11.55,1c5.5,0,8.26-2.59,8.26-7.76c0-2.08-0.61-3.58-1.81-4.49
			c-1.21-0.91-3.47-1.68-6.78-2.32c-4.35-0.93-7.44-2.13-9.26-3.6c-1.82-1.47-2.73-3.93-2.73-7.39c0-6.92,4.15-10.38,12.44-10.38
			c2.71,0,5.97,0.28,9.77,0.84l1.9,0.28l-0.39,3.63C39.37,203.69,35.71,203.37,33.55,203.37z"/>
		<path class="st1" d="M52.41,204.6v-4.85h4.18v4.85H52.41z M52.41,238.81v-27.9h4.18v27.9H52.41z"/>
		<path class="st1" d="M68.81,238.81h-4.18v-27.9h4.13v1.95c2.79-1.67,5.5-2.51,8.15-2.51c3.46,0,5.88,0.95,7.25,2.85
			c1.23-0.74,2.82-1.4,4.77-1.98c1.95-0.58,3.67-0.87,5.16-0.87c3.72,0,6.22,1,7.5,2.99c1.28,1.99,1.93,5.57,1.93,10.74v14.73h-4.18
			v-14.62c0-3.87-0.37-6.52-1.12-7.95s-2.33-2.15-4.74-2.15c-1.23,0-2.49,0.18-3.79,0.53c-1.3,0.35-2.31,0.7-3.01,1.03l-1.06,0.5
			c0.48,1.23,0.72,3.94,0.72,8.15v14.51h-4.18v-14.4c0-4.02-0.36-6.74-1.09-8.17c-0.72-1.43-2.32-2.15-4.77-2.15
			c-1.19,0-2.41,0.18-3.66,0.53c-1.25,0.35-2.2,0.7-2.87,1.03l-0.95,0.5V238.81z"/>
		<path class="st1" d="M111.28,251.19v-40.29h4.13v2.01c2.83-1.71,5.62-2.57,8.37-2.57c3.53,0,6.1,1.13,7.7,3.38
			c1.6,2.25,2.4,5.96,2.4,11.13c0,5.17-0.94,8.88-2.82,11.13c-1.88,2.25-4.99,3.38-9.35,3.38c-2.27,0-4.35-0.2-6.25-0.61v12.44
			H111.28z M123.16,214.09c-1.12,0-2.32,0.19-3.6,0.56c-1.28,0.37-2.3,0.74-3.04,1.12l-1.06,0.56v18.81
			c2.64,0.41,4.65,0.61,6.03,0.61c3.01,0,5.12-0.86,6.33-2.57c1.21-1.71,1.81-4.5,1.81-8.37c0-3.87-0.55-6.62-1.65-8.26
			C126.89,214.91,125.28,214.09,123.16,214.09z"/>
		<path class="st1" d="M141.02,238.81v-40.06h4.18v40.06H141.02z"/>
		<path class="st1" d="M150.95,210.91h4.18l6.97,24.27h1.84l7.03-24.27h4.18l-11.61,40.29h-4.18l3.63-12.39h-4.13L150.95,210.91z"/>
		<path class="st1" d="M178.23,238.81v-6.36h4.58v6.36H178.23z"/>
		<path class="st1" d="M217.68,225.8h-9.82v13h-4.3v-38.61h14.12c4.2,0,7.31,1.02,9.32,3.07c2.01,2.05,3.01,5.17,3.01,9.37
			C230.01,221.42,225.9,225.8,217.68,225.8z M207.86,222.01h9.76c5.32,0,7.98-3.12,7.98-9.37c0-2.98-0.63-5.16-1.9-6.56
			c-1.26-1.39-3.29-2.09-6.08-2.09h-9.76V222.01z"/>
		<path class="st1" d="M255.34,219.33v14.28c0.11,1.38,1.19,2.2,3.24,2.45l-0.17,3.29c-2.94,0-5.15-0.74-6.64-2.23
			c-3.35,1.49-6.7,2.23-10.04,2.23c-2.57,0-4.52-0.72-5.86-2.18s-2.01-3.53-2.01-6.25s0.69-4.72,2.06-6
			c1.37-1.28,3.53-2.07,6.47-2.37l8.76-0.84v-2.4c0-1.9-0.41-3.25-1.23-4.07c-0.82-0.82-1.93-1.23-3.35-1.23
			c-2.98,0-6.06,0.19-9.26,0.56l-1.73,0.17l-0.17-3.18c4.09-0.82,7.72-1.23,10.88-1.23c3.16,0,5.46,0.73,6.89,2.18
			C254.63,213.98,255.34,216.24,255.34,219.33z M238.16,230.72c0,3.42,1.41,5.13,4.24,5.13c2.53,0,5.02-0.43,7.48-1.28l1.28-0.45
			v-9.21l-8.26,0.78c-1.67,0.15-2.88,0.63-3.63,1.45C238.53,227.96,238.16,229.15,238.16,230.72z"/>
		<path class="st1" d="M260.7,210.91h4.18l6.98,24.27h1.84l7.03-24.27h4.18l-11.61,40.29h-4.18l3.63-12.39h-4.13L260.7,210.91z"/>
		<path class="st1" d="M294.46,238.81h-4.18v-27.9h4.13v1.95c2.79-1.67,5.5-2.51,8.15-2.51c3.46,0,5.88,0.95,7.25,2.85
			c1.23-0.74,2.82-1.4,4.77-1.98c1.95-0.58,3.67-0.87,5.16-0.87c3.72,0,6.22,1,7.51,2.99c1.28,1.99,1.93,5.57,1.93,10.74v14.73
			h-4.19v-14.62c0-3.87-0.37-6.52-1.12-7.95c-0.74-1.43-2.33-2.15-4.74-2.15c-1.23,0-2.49,0.18-3.79,0.53
			c-1.3,0.35-2.31,0.7-3.01,1.03l-1.06,0.5c0.48,1.23,0.73,3.94,0.73,8.15v14.51h-4.18v-14.4c0-4.02-0.36-6.74-1.09-8.17
			c-0.73-1.43-2.32-2.15-4.77-2.15c-1.19,0-2.41,0.18-3.65,0.53c-1.25,0.35-2.2,0.7-2.87,1.03l-0.95,0.5V238.81z"/>
		<path class="st1" d="M355.89,235.35l1.62-0.17l0.11,3.29c-4.24,0.59-7.87,0.89-10.88,0.89c-4.02,0-6.86-1.16-8.54-3.49
			c-1.67-2.32-2.51-5.94-2.51-10.85c0-9.78,3.89-14.68,11.66-14.68c3.76,0,6.57,1.05,8.43,3.15c1.86,2.1,2.79,5.4,2.79,9.9
			l-0.22,3.18h-18.41c0,3.09,0.56,5.38,1.67,6.86c1.12,1.49,3.06,2.23,5.83,2.23C350.21,235.68,353.03,235.57,355.89,235.35z
			 M354.39,223.24c0-3.42-0.55-5.84-1.64-7.25c-1.1-1.41-2.88-2.12-5.36-2.12c-2.48,0-4.33,0.74-5.58,2.23s-1.89,3.87-1.93,7.14
			H354.39z"/>
		<path class="st1" d="M369.29,238.81h-4.18v-27.9h4.13v1.95c3.01-1.67,5.89-2.51,8.65-2.51c3.72,0,6.22,1,7.51,3.01
			c1.28,2.01,1.93,5.58,1.93,10.71v14.73h-4.13v-14.62c0-3.87-0.38-6.52-1.14-7.95c-0.76-1.43-2.39-2.15-4.88-2.15
			c-1.19,0-2.45,0.18-3.77,0.53s-2.33,0.7-3.04,1.03l-1.06,0.5V238.81z"/>
		<path class="st1" d="M409.35,214.53h-8.87v13.34c0,3.2,0.23,5.3,0.7,6.31c0.46,1,1.57,1.51,3.32,1.51l4.97-0.33l0.28,3.46
			c-2.49,0.41-4.39,0.61-5.69,0.61c-2.9,0-4.91-0.71-6.03-2.12c-1.12-1.41-1.67-4.11-1.67-8.09v-14.68h-3.96v-3.63h3.96v-8.54h4.13
			v8.54h8.87V214.53z"/>
		<path class="st1" d="M423.24,214.09c-4.05,0-6.08,1.41-6.08,4.24c0,1.3,0.46,2.22,1.39,2.76c0.93,0.54,3.05,1.1,6.36,1.67
			c3.31,0.58,5.66,1.39,7.03,2.43c1.38,1.04,2.06,2.99,2.06,5.86c0,2.87-0.92,4.97-2.76,6.31c-1.84,1.34-4.53,2.01-8.06,2.01
			c-2.31,0-5.02-0.26-8.15-0.78l-1.67-0.28l0.22-3.63c4.24,0.63,7.44,0.95,9.6,0.95c2.16,0,3.8-0.34,4.94-1.03
			c1.13-0.69,1.7-1.84,1.7-3.46c0-1.62-0.48-2.72-1.45-3.29c-0.97-0.58-3.09-1.12-6.36-1.65c-3.27-0.52-5.6-1.28-6.97-2.29
			c-1.38-1-2.06-2.86-2.06-5.58s0.96-4.72,2.87-6.03c1.92-1.3,4.31-1.95,7.17-1.95c2.27,0,5.11,0.26,8.54,0.78l1.56,0.28l-0.11,3.57
			C428.88,214.39,425.62,214.09,423.24,214.09z"/>
		<path class="st1" d="M440.15,238.81v-6.36h4.58v6.36H440.15z"/>
	</g>
</g>
<g id="Layer_2" class="st6">
</g>
</svg>
