<svg viewBox="0 0 172.57 60.2" xmlns="http://www.w3.org/2000/svg" xmlns:xlink="http://www.w3.org/1999/xlink" id="Layer_1" overflow="hidden"><defs/><path d="M157.64 10.89 150.94 19.76 167.42 19.76 172.18 13.45C173.16 12.14 172.23 10.27 170.6 10.27L159.07 10.27C158.53 10.27 158.02 10.5 157.65 10.88" stroke-width="0" fill="#D381B6"/><path d="M149.6 22.18 157.61 32.77 165.59 22.18 149.6 22.18Z" stroke-width="0" fill="#D381B6"/><path d="M147.84 23.86 143.2 30 139.58 34.8 123.5 56.14C122.52 57.45 123.45 59.32 125.08 59.32L136.61 59.32C137.23 59.32 137.82 59.03 138.19 58.53L147.83 45.74 157.47 58.53C157.84 59.03 158.43 59.32 159.05 59.32L170.58 59.32C172.22 59.32 173.15 57.45 172.16 56.14L147.83 23.86Z" stroke-width="0" fill="#10B8E2"/><path d="M128.26 19.76 144.75 19.76 138.09 10.94C137.72 10.52 137.19 10.27 136.62 10.27L125.09 10.27C123.45 10.27 122.52 12.14 123.51 13.45L128.27 19.76Z" stroke-width="0" fill="#D381B6"/><path d="M1.54 49.26C2.37 47.22 4.69 46.25 6.73 47.08 9.1 48.05 12.76 49.14 17.18 49.14 20.87 49.14 24.56 47.97 24.56 44.73 24.56 42.12 21.95 40.86 17.73 39.6L12.24 37.89C2.52 35.11 0 30.25 0 24.5 0 14.61 8 8.94 20.6 8.94 34.18 8.94 37.87 12.27 38.05 14.88 38.23 16.19 37.64 18.14 36.88 19.83 36.01 21.76 33.75 22.63 31.78 21.85 29.55 20.97 26.23 20.01 22.4 20.01 19.61 20.01 15.66 20.55 15.66 24.06 15.66 26.22 17.19 27.39 20.79 28.38L26.82 30.09C36.89 32.79 40.58 37.38 40.58 44.12 40.58 54.19 31.85 60.22 18.18 60.22 4.51 60.22 0.81 56.61 0.72 53.19 0.69 51.83 1.05 50.46 1.54 49.27" stroke-width="0" fill="#446E82"/><path d="M48.21 21.26 44.25 21.26C42.45 21.26 41.64 20.72 41.73 19.01 41.82 17.3 41.46 15.14 41.55 13.43 41.64 12.53 42 11.45 44.07 10.91 51.27 9.92 52.25 5.42 52.61 2.81 53.06 1.01 53.69 0.11 55.76 0.11 58.55 0.11 64.03-0.97 63.86 3.26 63.77 5.24 63.77 8.03 63.77 9.83 65.93 9.92 70.6 9.92 73.66 9.83 75.82 9.74 76.45 10.73 76.45 11.99 76.45 13.79 76.36 16.49 76.36 19 76.36 20.35 76 21.16 74.2 21.16 70.96 21.07 64.67 21.16 63.59 21.16 63.41 28.45 63.23 38.61 63.32 44.09 63.41 47.87 64.58 48.77 67.19 48.77 68.99 48.77 70.79 48.32 72.32 48.05 73.94 47.78 75.2 48.77 75.38 50.21L75.74 53.9C75.92 55.7 75.56 56.87 74.12 57.77 71.24 59.48 65.57 60.2 61.62 60.2 51.46 60.2 47.86 54.89 47.86 45.63 47.86 40.59 48.31 24.49 48.22 21.26" stroke-width="0" fill="#446E82"/><path d="M95.34 29.98C99.66 30.07 104.06 31.24 105.86 31.87L105.86 28.45C105.86 23.95 102.71 21.61 97.14 21.61 93.7 21.61 90.38 22.31 87.98 22.98 85.48 23.68 82.85 22.25 82.14 19.75 81.5 17.48 81.42 14.8 83.47 12.79 85.9 10.54 91.3 8.92 99.12 8.92 112.52 8.92 120.35 16.39 120.7 27.18 120.97 34.29 120.34 46.61 120.52 51.55 120.61 55.78 123.22 60.19 113.77 60.19 109 60.19 106.3 57.67 107.2 50.75L106.66 50.75C106.66 50.75 103.6 60.19 92.54 60.19 83.28 60.19 77.61 53.8 77.25 45.53 76.8 35.37 84.71 29.7 95.33 29.97M96.95 49.4C101.99 49.4 105.13 45.26 105.85 42.2L105.85 38.24C104.95 37.88 102.25 37.34 99.37 37.34 94.51 37.34 90.65 39.68 90.65 43.72 90.74 47.23 93.26 49.39 96.95 49.39" stroke-width="0" fill="#446E82"/></svg>