<svg viewBox="0 0 521.24 207.33" xmlns="http://www.w3.org/2000/svg" xmlns:xlink="http://www.w3.org/1999/xlink" xml:space="preserve" overflow="hidden"><g id="Layer_1"><g><path d="M382.33 81.64 404.54 111.11 426.81 81.64Z" fill="#D884B6"/><path d="M458.91 50.27 440.28 74.93 486.07 74.93 499.29 57.38C502.03 53.75 499.44 48.56 494.89 48.56L462.84 48.56C461.35 48.56 459.94 49.2 458.91 50.27Z" fill="#D884B6"/><path d="M436.57 81.64 458.82 111.09 481.02 81.64Z" fill="#D884B6"/><path d="M431.69 86.31 418.8 103.37 408.75 116.7 364.05 176.01C361.31 179.64 363.9 184.83 368.45 184.83L400.5 184.83C402.23 184.83 403.86 184.02 404.9 182.64L431.68 147.11 458.46 182.64C459.5 184.02 461.13 184.83 462.86 184.83L494.91 184.83C499.46 184.83 502.05 179.64 499.31 176.01L431.69 86.31Z" fill="#28B6E3"/><path d="M377.27 74.93 423.09 74.93 404.58 50.42C403.54 49.26 402.07 48.56 400.49 48.56L368.44 48.56C363.89 48.56 361.3 53.75 364.04 57.38L377.27 74.93Z" fill="#D884B6"/><path d="M25.1 156.92C27.42 151.26 33.86 148.55 39.53 150.86 46.12 153.54 56.3 156.58 68.57 156.58 78.82 156.58 89.07 153.33 89.07 144.33 89.07 137.08 81.82 133.58 70.07 130.08L54.82 125.33C27.83 117.58 20.83 104.08 20.83 88.09 20.83 60.6 43.07 44.85 78.07 44.85 115.81 44.85 126.06 54.1 126.56 61.35 127.06 64.99 125.42 70.4 123.31 75.11 120.9 80.49 114.62 82.88 109.14 80.72 102.95 78.28 93.72 75.6 83.07 75.6 75.32 75.6 64.32 77.1 64.32 86.85 64.32 92.85 68.57 96.1 78.57 98.85L95.32 103.6C123.31 111.1 133.56 123.85 133.56 142.59 133.56 170.59 109.31 187.33 71.32 187.33 33.33 187.33 23.08 177.33 22.83 167.83 22.73 164.05 23.74 160.24 25.1 156.92Z" fill="#467085"/><path d="M154.8 79.09 143.8 79.09C138.8 79.09 136.55 77.59 136.8 72.84 137.05 68.09 136.05 62.09 136.3 57.34 136.55 54.84 137.55 51.84 143.3 50.34 163.3 47.59 166.05 35.09 167.05 27.84 168.3 22.84 170.05 20.34 175.8 20.34 183.55 20.34 198.8 17.34 198.3 29.09 198.05 34.59 198.05 42.34 198.05 47.34 204.05 47.59 217.05 47.59 225.54 47.34 231.54 47.09 233.29 49.84 233.29 53.34 233.29 58.34 233.04 65.84 233.04 72.84 233.04 76.59 232.04 78.84 227.04 78.84 218.04 78.59 200.55 78.84 197.55 78.84 197.05 99.09 196.55 127.33 196.8 142.58 197.05 153.08 200.3 155.58 207.55 155.58 212.55 155.58 217.55 154.33 221.8 153.58 226.3 152.83 229.8 155.58 230.3 159.58L231.3 169.83C231.8 174.83 230.8 178.08 226.8 180.58 218.8 185.33 203.05 187.33 192.06 187.33 163.82 187.33 153.82 172.58 153.82 146.84 153.8 132.83 155.05 88.09 154.8 79.09Z" fill="#467085"/><path d="M285.78 103.34C297.78 103.59 310.03 106.84 315.02 108.59L315.02 99.09C315.02 86.59 306.27 80.09 290.78 80.09 281.23 80.09 272.01 82.02 265.33 83.89 258.37 85.84 251.08 81.87 249.1 74.92 247.31 68.62 247.1 61.15 252.79 55.59 259.54 49.34 274.54 44.84 296.28 44.84 333.52 44.84 355.27 65.59 356.27 95.58 357.02 115.33 355.27 149.57 355.77 163.32 356.02 175.07 363.27 187.32 337.02 187.32 323.77 187.32 316.27 180.32 318.77 161.07L317.27 161.07C317.27 161.07 308.77 187.32 278.03 187.32 252.28 187.32 236.54 169.57 235.54 146.58 234.29 118.33 256.28 102.59 285.78 103.34ZM290.28 157.33C304.28 157.33 313.03 145.83 315.02 137.33L315.02 126.33C312.52 125.33 305.02 123.83 297.02 123.83 283.52 123.83 272.77 130.33 272.77 141.58 273.03 151.33 280.03 157.33 290.28 157.33Z" fill="#467085"/></g></g><g id="Layer_2" display="none"></g></svg>