<svg viewBox="0 0 233.39 76.79" xmlns="http://www.w3.org/2000/svg" xmlns:xlink="http://www.w3.org/1999/xlink" id="Layer_1" overflow="hidden"><defs/><path d="M5.53 49.99C5.53 49.99 9.67 54.69 14.7 54.69 16.71 54.69 18.72 53.96 18.72 51.73 18.72 47.31 0.61 46.81 0.61 34.29 0.61 27.08 6.93 22.27 14.86 22.27 20.17 22.27 27.6 24.84 27.6 30.93L27.6 35.29 18.66 35.29 18.66 33.56C18.66 32.11 16.59 31.21 14.75 31.21 12.74 31.21 10.67 32.05 10.67 33.89 10.67 38.75 28.78 38.08 28.78 51.22 28.78 57.87 23.58 63.57 14.58 63.57 5.58 63.57 0 56.97 0 56.97L5.53 49.98Z" stroke-width="0" fill="#939598"/><path d="M34.65 32.27C34.65 31.49 34.2 31.04 33.42 31.04L31.3 31.04 31.3 22.94 40.24 22.94C43.09 22.94 44.32 24.17 44.32 27.02L44.32 35.57C44.32 37.02 44.21 38.03 44.21 38.03L44.32 38.03C45.94 35.18 49.29 33.45 53.09 33.45 58.9 33.45 63.43 36.13 63.43 44.24L63.43 53.57C63.43 54.35 63.88 54.8 64.66 54.8L66.78 54.8 66.78 62.9 57.84 62.9C54.99 62.9 53.76 61.67 53.76 58.82L53.76 46.02C53.76 43.34 52.7 42.22 50.58 42.22 47.62 42.22 45.66 43.95 44.82 46.47 44.43 47.59 44.32 48.82 44.32 50.16L44.32 62.9 34.65 62.9 34.65 32.27Z" stroke-width="0" fill="#939598"/><path d="M84.11 33.44C92.61 33.44 97.41 39.36 97.41 47.36 97.41 48.31 97.19 50.27 97.19 50.27L79.03 50.27C79.76 53.9 82.66 55.52 85.74 55.52 89.88 55.52 93.4 52.5 93.4 52.5L97.26 58.98C97.26 58.98 92.62 63.56 84.96 63.56 74.68 63.56 69.14 56.13 69.14 48.47 69.14 40.03 74.84 33.44 84.12 33.44M87.53 44.39C87.53 42.6 86.13 40.7 84.12 40.7 81.33 40.7 79.93 42.27 79.31 44.39L87.53 44.39Z" stroke-width="0" fill="#939598"/><path d="M103.67 43.45C103.67 42.67 103.22 42.22 102.44 42.22L100.32 42.22 100.32 34.12 108.87 34.12C111.5 34.12 112.95 35.18 112.95 37.81L112.95 39.32C112.95 40.21 112.84 40.77 112.84 40.77L112.95 40.77C114.18 36.86 117.81 33.62 122.12 33.62 122.68 33.62 123.24 33.73 123.24 33.73L123.24 43.23C123.24 43.23 122.46 43.06 121.28 43.06 118.99 43.06 115.24 43.79 113.85 48.09 113.51 49.15 113.35 50.44 113.35 52L113.35 62.9 103.68 62.9 103.68 43.45Z" stroke-width="0" fill="#939598"/><path d="M129.15 43.45C129.15 42.67 128.7 42.22 127.92 42.22L125.8 42.22 125.8 34.12 134.46 34.12C137.09 34.12 138.48 35.41 138.48 37.36L138.48 37.75C138.48 38.03 138.42 38.42 138.42 38.42L138.53 38.42C139.87 36.41 142.44 33.45 146.97 33.45 150.6 33.45 153.51 35.07 155.02 38.31L155.13 38.31C156.64 35.91 160.05 33.45 164.35 33.45 169.6 33.45 173.68 36.3 173.68 44.24L173.68 53.57C173.68 54.35 174.13 54.8 174.91 54.8L177.03 54.8 177.03 62.9 168.09 62.9C165.24 62.9 164.01 61.67 164.01 58.82L164.01 45.85C164.01 43.73 163.62 42.22 161.77 42.22 158.86 42.22 157.19 44.57 156.57 47.75 156.35 48.76 156.24 49.82 156.24 50.99L156.24 62.89 146.57 62.89 146.57 45.84C146.57 43.72 146.18 42.21 144.33 42.21 141.48 42.21 139.86 44.45 139.19 47.52 138.97 48.58 138.8 49.76 138.8 50.98L138.8 62.88 129.13 62.88 129.13 43.43Z" stroke-width="0" fill="#939598"/><path d="M191.33 54.79C190.55 54.79 190.1 54.34 190.1 53.56L190.1 38.19C190.1 35.34 188.87 34.11 186.02 34.11L177.08 34.11 177.08 42.21 179.2 42.21C179.98 42.21 180.43 42.66 180.43 43.44L180.43 58.81C180.43 61.66 181.66 62.89 184.51 62.89L193.45 62.89 193.45 54.79 191.33 54.79Z" stroke-width="0" fill="#939598"/><path d="M196.95 43.45C196.95 42.67 196.5 42.22 195.72 42.22L193.6 42.22 193.6 34.12 202.21 34.12C204.84 34.12 206.23 35.41 206.23 37.36L206.23 37.75C206.23 38.03 206.17 38.42 206.17 38.42L206.28 38.42C207.62 36.18 210.3 33.45 215.39 33.45 221.2 33.45 225.73 36.13 225.73 44.24L225.73 53.57C225.73 54.35 226.18 54.8 226.96 54.8L229.08 54.8 229.08 62.9 220.14 62.9C217.29 62.9 216.06 61.67 216.06 58.82L216.06 46.02C216.06 43.34 215 42.22 212.88 42.22 209.86 42.22 208.02 43.9 207.18 46.36 206.79 47.48 206.62 48.76 206.62 50.16L206.62 62.9 196.95 62.9 196.95 43.45Z" stroke-width="0" fill="#939598"/><path d="M185.17 11.77 188.72 11.77 193.75 3.06C194.54 1.7 193.55-0.01 191.98-0.01L175.65-0.01C174.07-0.01 173.09 1.69 173.88 3.06L178.91 11.77 185.18 11.77Z" stroke-width="0" fill="#10B8E2"/><path d="M182.04 17.21 178.9 11.78 168.84 11.78C167.26 11.78 166.28 13.48 167.07 14.85L175.23 28.99C176.02 30.35 177.99 30.35 178.77 28.99L183.8 20.28 182.06 17.27C182.06 17.27 182.04 17.24 182.03 17.22" stroke-width="0" fill="#EFD972"/><path d="M182.07 17.25 180.68 14.84C179.89 13.48 180.88 11.77 182.45 11.77L178.9 11.77 182.04 17.2C182.04 17.2 182.06 17.23 182.07 17.25" stroke-width="0" fill="#10B8E2"/><path d="M182.07 17.25 180.68 14.84C179.89 13.48 180.88 11.77 182.45 11.77L178.9 11.77 182.04 17.2C182.04 17.2 182.06 17.23 182.07 17.25" stroke-width="0" fill="#53AC7C"/><path d="M198.77 11.77 188.71 11.77 185.57 17.2C185.57 17.2 185.55 17.23 185.54 17.25L183.8 20.26 188.83 28.97C189.62 30.33 191.59 30.33 192.37 28.97L200.53 14.83C201.32 13.47 200.33 11.76 198.76 11.76" stroke-width="0" fill="#D381B6"/><path d="M186.94 14.84 185.55 17.25C185.55 17.25 185.57 17.22 185.58 17.2L188.72 11.77 185.17 11.77C186.74 11.77 187.73 13.47 186.94 14.84" stroke-width="0" fill="#10B8E2"/><path d="M186.94 14.84 185.55 17.25C185.55 17.25 185.57 17.22 185.58 17.2L188.72 11.77 185.17 11.77C186.74 11.77 187.73 13.47 186.94 14.84" stroke-width="0" fill="#626FAC"/><path d="M182.07 17.25 183.81 20.26 185.55 17.25C184.75 18.55 182.87 18.55 182.07 17.25" stroke-width="0" fill="#EFD972"/><path d="M182.07 17.25 183.81 20.26 185.55 17.25C184.75 18.55 182.87 18.55 182.07 17.25" stroke-width="0" fill="#D8805E"/><path d="M185.17 11.77 182.45 11.77C180.88 11.77 179.89 13.47 180.68 14.84L182.07 17.25C182.87 18.55 184.75 18.55 185.55 17.25L186.94 14.84C187.73 13.48 186.74 11.77 185.17 11.77" stroke-width="0" fill="#10B8E2"/><path d="M185.17 11.77 182.45 11.77C180.88 11.77 179.89 13.47 180.68 14.84L182.07 17.25C182.87 18.55 184.75 18.55 185.55 17.25L186.94 14.84C187.73 13.48 186.74 11.77 185.17 11.77" stroke-width="0" fill="#EFD972"/><path d="M185.17 11.77 182.45 11.77C180.88 11.77 179.89 13.47 180.68 14.84L182.07 17.25C182.87 18.55 184.75 18.55 185.55 17.25L186.94 14.84C187.73 13.48 186.74 11.77 185.17 11.77" stroke-width="0" fill="#6B6E65"/><path d="M151.4 66.87C150.84 66.25 150.05 65.93 149.02 65.93 148.17 65.93 147.56 66.09 147.17 66.41 146.78 66.73 146.59 67.16 146.59 67.71 146.59 67.99 146.64 68.22 146.74 68.4 146.84 68.58 146.99 68.74 147.2 68.87 147.41 69 147.67 69.11 147.99 69.2 148.31 69.29 148.69 69.38 149.13 69.48 149.59 69.58 150.01 69.68 150.39 69.8 150.77 69.92 151.09 70.07 151.35 70.24 151.61 70.42 151.82 70.64 151.96 70.9 152.1 71.16 152.17 71.48 152.17 71.86 152.17 72.24 152.09 72.57 151.95 72.86 151.8 73.14 151.59 73.38 151.32 73.57 151.05 73.76 150.72 73.9 150.35 74 149.97 74.1 149.55 74.15 149.09 74.15 147.74 74.15 146.6 73.72 145.67 72.86L146 72.36C146.36 72.74 146.81 73.04 147.34 73.27 147.87 73.49 148.46 73.61 149.12 73.61 149.88 73.61 150.47 73.47 150.89 73.2 151.32 72.92 151.53 72.51 151.53 71.95 151.53 71.66 151.47 71.42 151.36 71.22 151.25 71.02 151.08 70.85 150.85 70.7 150.63 70.55 150.34 70.43 150 70.32 149.66 70.21 149.26 70.11 148.81 70.01 148.35 69.91 147.94 69.81 147.59 69.7 147.24 69.59 146.94 69.45 146.7 69.29 146.46 69.12 146.28 68.92 146.16 68.69 146.04 68.46 145.98 68.16 145.98 67.8 145.98 67.41 146.06 67.06 146.21 66.76 146.36 66.46 146.57 66.21 146.84 66 147.11 65.79 147.43 65.64 147.8 65.53 148.17 65.43 148.59 65.37 149.04 65.37 149.6 65.37 150.1 65.45 150.54 65.62 150.98 65.79 151.38 66.04 151.73 66.38L151.41 66.87Z" stroke-width="0" fill="#10B8E2"/><path d="M153.55 65.19 154.16 65.19 154.16 66.31 153.55 66.31 153.55 65.19ZM153.55 67.75 154.16 67.75 154.16 74.08 153.55 74.08 153.55 67.75Z" stroke-width="0" fill="#10B8E2"/><path d="M165.38 74.08 164.77 74.08 164.77 70.55C164.77 69.75 164.65 69.15 164.4 68.77 164.15 68.39 163.77 68.2 163.26 68.2 163 68.2 162.75 68.25 162.52 68.35 162.28 68.45 162.07 68.58 161.87 68.76 161.68 68.93 161.51 69.14 161.36 69.38 161.22 69.62 161.11 69.89 161.02 70.18L161.02 74.09 160.41 74.09 160.41 70.56C160.41 69.75 160.29 69.15 160.04 68.77 159.8 68.39 159.42 68.2 158.91 68.2 158.65 68.2 158.4 68.25 158.17 68.34 157.94 68.43 157.73 68.57 157.53 68.74 157.33 68.91 157.16 69.12 157.01 69.36 156.86 69.6 156.74 69.86 156.66 70.16L156.66 74.08 156.05 74.08 156.05 67.75 156.62 67.75 156.62 69.26C156.88 68.75 157.22 68.35 157.64 68.07 158.06 67.79 158.53 67.64 159.04 67.64 159.55 67.64 160.01 67.8 160.34 68.11 160.67 68.43 160.87 68.84 160.94 69.35 161.54 68.21 162.37 67.63 163.42 67.63 164.11 67.63 164.6 67.88 164.9 68.37 165.2 68.86 165.35 69.55 165.35 70.43L165.35 74.07Z" stroke-width="0" fill="#10B8E2"/><path d="M170.31 74.2C169.77 74.2 169.28 74.06 168.85 73.77 168.42 73.48 168.08 73.13 167.82 72.72L167.82 76.68 167.21 76.68 167.21 67.75 167.77 67.75 167.77 69.02C168.03 68.61 168.37 68.28 168.8 68.03 169.23 67.77 169.68 67.65 170.17 67.65 170.61 67.65 171.02 67.74 171.39 67.93 171.76 68.12 172.08 68.36 172.35 68.67 172.62 68.97 172.83 69.33 172.98 69.72 173.13 70.12 173.21 70.52 173.21 70.94 173.21 71.38 173.14 71.8 173 72.19 172.86 72.59 172.67 72.94 172.41 73.24 172.15 73.54 171.85 73.78 171.49 73.95 171.13 74.12 170.74 74.21 170.31 74.21M170.16 73.66C170.53 73.66 170.86 73.58 171.16 73.43 171.46 73.28 171.72 73.07 171.93 72.82 172.14 72.56 172.3 72.27 172.42 71.94 172.53 71.61 172.59 71.28 172.59 70.94 172.59 70.57 172.52 70.23 172.39 69.9 172.26 69.57 172.08 69.28 171.85 69.03 171.62 68.78 171.35 68.58 171.04 68.43 170.73 68.28 170.4 68.2 170.05 68.2 169.83 68.2 169.6 68.25 169.35 68.34 169.1 68.43 168.87 68.56 168.65 68.72 168.43 68.88 168.24 69.06 168.09 69.26 167.93 69.46 167.85 69.68 167.82 69.91L167.82 71.99C167.92 72.23 168.06 72.45 168.22 72.65 168.38 72.85 168.57 73.03 168.77 73.19 168.97 73.34 169.19 73.46 169.43 73.55 169.67 73.64 169.91 73.68 170.16 73.68" stroke-width="0" fill="#10B8E2"/><path d="M174.72 65.19 175.34 65.19 175.34 72.83C175.34 73.07 175.41 73.25 175.54 73.39 175.67 73.53 175.86 73.6 176.09 73.6 176.18 73.6 176.29 73.59 176.41 73.57 176.54 73.55 176.65 73.52 176.76 73.48L176.88 73.97C176.74 74.03 176.57 74.07 176.37 74.11 176.17 74.15 175.99 74.17 175.85 74.17 175.51 74.17 175.23 74.07 175.03 73.86 174.82 73.65 174.72 73.37 174.72 73.03L174.72 65.21Z" stroke-width="0" fill="#10B8E2"/><path d="M178.12 76.22C178.12 76.22 178.22 76.23 178.3 76.23 178.38 76.23 178.46 76.23 178.52 76.22 178.59 76.22 178.66 76.19 178.72 76.16 178.77 76.14 178.81 76.1 178.85 76.06 178.89 76.01 178.95 75.92 179.02 75.78 179.09 75.64 179.19 75.44 179.3 75.17 179.41 74.9 179.57 74.54 179.76 74.07L176.93 67.74 177.56 67.74 180.08 73.48 182.43 67.74 183.03 67.74 179.56 76.07C179.47 76.3 179.33 76.47 179.13 76.6 178.93 76.72 178.66 76.79 178.32 76.79L178.22 76.79C178.22 76.79 178.14 76.79 178.1 76.78L178.1 76.22Z" stroke-width="0" fill="#10B8E2"/><rect x="183.55" y="73.04" width="0.54" height="1.04" stroke-width="0" fill="#10B8E2"/><path d="M189.16 74.08 189.16 65.43 194.78 65.43 194.78 65.99 189.78 65.99 189.78 69.43 194.03 69.43 194.03 69.96 189.78 69.96 189.78 74.08 189.16 74.08Z" stroke-width="0" fill="#10B8E2"/><path d="M196.21 65.19 196.82 65.19 196.82 66.31 196.21 66.31 196.21 65.19ZM196.21 67.75 196.82 67.75 196.82 74.08 196.21 74.08 196.21 67.75Z" stroke-width="0" fill="#10B8E2"/><path d="M203.91 74.08 203.3 74.08 203.3 70.55C203.3 69.73 203.18 69.13 202.95 68.76 202.72 68.39 202.35 68.2 201.85 68.2 201.58 68.2 201.32 68.25 201.05 68.35 200.79 68.45 200.54 68.59 200.31 68.76 200.08 68.94 199.88 69.15 199.71 69.39 199.54 69.63 199.41 69.89 199.33 70.16L199.33 74.08 198.72 74.08 198.72 67.75 199.29 67.75 199.29 69.26C199.42 69.02 199.58 68.8 199.77 68.6 199.96 68.4 200.18 68.23 200.42 68.09 200.66 67.95 200.91 67.84 201.18 67.76 201.45 67.68 201.72 67.64 202.01 67.64 202.7 67.64 203.19 67.88 203.47 68.36 203.75 68.84 203.9 69.54 203.9 70.44L203.9 74.08Z" stroke-width="0" fill="#10B8E2"/><path d="M207.31 74.2C207.02 74.2 206.75 74.15 206.49 74.05 206.24 73.95 206.02 73.81 205.83 73.64 205.64 73.46 205.49 73.26 205.39 73.02 205.28 72.78 205.23 72.52 205.23 72.25 205.23 71.98 205.29 71.72 205.43 71.5 205.56 71.27 205.74 71.08 205.97 70.91 206.2 70.74 206.48 70.61 206.8 70.52 207.13 70.43 207.48 70.38 207.87 70.38 208.21 70.38 208.55 70.41 208.9 70.47 209.25 70.53 209.56 70.61 209.83 70.72L209.83 70.1C209.83 69.5 209.66 69.02 209.32 68.67 208.98 68.32 208.52 68.14 207.93 68.14 207.62 68.14 207.29 68.21 206.95 68.33 206.6 68.46 206.25 68.65 205.9 68.89L205.67 68.48C206.48 67.93 207.25 67.65 207.98 67.65 208.71 67.65 209.34 67.87 209.78 68.31 210.22 68.75 210.44 69.36 210.44 70.14L210.44 73.23C210.44 73.43 210.53 73.53 210.71 73.53L210.71 74.08C210.71 74.08 210.63 74.09 210.58 74.1 210.53 74.1 210.5 74.1 210.46 74.1 210.3 74.1 210.17 74.05 210.07 73.94 209.97 73.83 209.91 73.7 209.9 73.54L209.9 73.02C209.61 73.4 209.23 73.69 208.78 73.9 208.32 74.1 207.83 74.2 207.31 74.2M207.43 73.71C207.9 73.71 208.33 73.62 208.73 73.44 209.12 73.26 209.43 73.03 209.64 72.73 209.77 72.56 209.84 72.4 209.84 72.24L209.84 71.12C209.55 71.01 209.24 70.92 208.93 70.86 208.61 70.8 208.28 70.78 207.94 70.78 207.62 70.78 207.33 70.81 207.07 70.88 206.81 70.95 206.59 71.04 206.4 71.17 206.21 71.3 206.07 71.44 205.97 71.61 205.87 71.79 205.82 71.98 205.82 72.19 205.82 72.4 205.86 72.6 205.94 72.79 206.02 72.98 206.14 73.14 206.28 73.27 206.42 73.4 206.6 73.51 206.8 73.59 207 73.67 207.21 73.7 207.44 73.7" stroke-width="0" fill="#10B8E2"/><path d="M217.46 74.08 216.85 74.08 216.85 70.55C216.85 69.73 216.73 69.13 216.5 68.76 216.27 68.39 215.9 68.2 215.4 68.2 215.13 68.2 214.87 68.25 214.6 68.35 214.34 68.45 214.09 68.59 213.86 68.76 213.63 68.94 213.43 69.15 213.26 69.39 213.09 69.63 212.96 69.89 212.88 70.16L212.88 74.08 212.27 74.08 212.27 67.75 212.84 67.75 212.84 69.26C212.97 69.02 213.13 68.8 213.32 68.6 213.51 68.4 213.73 68.23 213.97 68.09 214.21 67.95 214.46 67.84 214.73 67.76 215 67.68 215.27 67.64 215.56 67.64 216.25 67.64 216.74 67.88 217.02 68.36 217.3 68.84 217.45 69.54 217.45 70.44L217.45 74.08Z" stroke-width="0" fill="#10B8E2"/><path d="M218.87 70.89C218.87 70.44 218.95 70.02 219.1 69.62 219.25 69.22 219.47 68.88 219.75 68.59 220.03 68.3 220.36 68.07 220.74 67.9 221.12 67.73 221.54 67.64 221.99 67.64 222.57 67.64 223.07 67.77 223.51 68.03 223.95 68.29 224.28 68.65 224.5 69.11L223.9 69.31C223.71 68.96 223.45 68.69 223.1 68.49 222.75 68.29 222.38 68.19 221.96 68.19 221.61 68.19 221.29 68.26 220.98 68.4 220.68 68.54 220.42 68.73 220.2 68.97 219.98 69.21 219.8 69.5 219.67 69.83 219.54 70.16 219.47 70.51 219.47 70.9 219.47 71.29 219.54 71.64 219.67 71.98 219.8 72.32 219.98 72.61 220.21 72.86 220.43 73.11 220.7 73.31 221 73.45 221.3 73.6 221.63 73.67 221.97 73.67 222.19 73.67 222.41 73.64 222.62 73.57 222.83 73.5 223.03 73.42 223.22 73.31 223.4 73.2 223.56 73.08 223.69 72.94 223.82 72.8 223.92 72.65 223.96 72.5L224.56 72.67C224.48 72.89 224.35 73.09 224.19 73.28 224.02 73.47 223.83 73.64 223.6 73.77 223.37 73.91 223.12 74.02 222.84 74.09 222.56 74.17 222.28 74.21 221.99 74.21 221.54 74.21 221.13 74.12 220.75 73.95 220.37 73.78 220.04 73.54 219.76 73.23 219.48 72.93 219.26 72.57 219.1 72.18 218.94 71.78 218.86 71.36 218.86 70.9" stroke-width="0" fill="#10B8E2"/><path d="M228.57 74.2C228.12 74.2 227.71 74.11 227.33 73.94 226.95 73.76 226.62 73.53 226.34 73.22 226.06 72.92 225.84 72.56 225.68 72.17 225.52 71.77 225.44 71.34 225.44 70.89 225.44 70.44 225.52 70.02 225.68 69.63 225.84 69.24 226.06 68.89 226.33 68.59 226.61 68.29 226.93 68.06 227.31 67.89 227.69 67.72 228.1 67.63 228.53 67.63 228.96 67.63 229.39 67.72 229.77 67.89 230.15 68.07 230.48 68.3 230.76 68.6 231.04 68.9 231.25 69.24 231.41 69.64 231.56 70.03 231.64 70.45 231.64 70.89L231.64 71.04C231.64 71.1 231.64 71.14 231.63 71.16L226.07 71.16C226.09 71.53 226.18 71.86 226.33 72.18 226.48 72.49 226.66 72.76 226.88 72.99 227.1 73.22 227.36 73.4 227.65 73.53 227.94 73.66 228.25 73.73 228.59 73.73 228.81 73.73 229.02 73.7 229.24 73.64 229.46 73.58 229.65 73.5 229.83 73.39 230.01 73.29 230.18 73.16 230.32 73.01 230.46 72.86 230.57 72.69 230.66 72.52L231.2 72.67C231.11 72.9 230.98 73.11 230.8 73.3 230.62 73.49 230.42 73.66 230.19 73.79 229.96 73.93 229.71 74.04 229.43 74.11 229.15 74.18 228.87 74.22 228.58 74.22M231.07 70.69C231.05 70.32 230.96 69.98 230.82 69.67 230.68 69.36 230.49 69.1 230.27 68.87 230.05 68.65 229.79 68.47 229.5 68.35 229.21 68.22 228.9 68.16 228.56 68.16 228.22 68.16 227.91 68.22 227.62 68.35 227.33 68.48 227.07 68.65 226.85 68.87 226.63 69.09 226.45 69.36 226.31 69.67 226.18 69.98 226.1 70.32 226.07 70.69L231.06 70.69Z" stroke-width="0" fill="#10B8E2"/><rect x="232.85" y="73.04" width="0.54" height="1.04" stroke-width="0" fill="#10B8E2"/></svg>